<svg id="レイヤー_1" data-name="レイヤー 1" xmlns="http://www.w3.org/2000/svg" viewBox="0 0 301 158.34"><defs><style>.cls-1,.cls-4{fill:#fff;}.cls-2{fill:#3ba83b;}.cls-3{fill:#dddd28;}.cls-4{stroke:#000;}.cls-4,.cls-5,.cls-6,.cls-7,.cls-8{stroke-miterlimit:10;}.cls-4,.cls-5,.cls-7{stroke-width:5px;}.cls-5,.cls-6,.cls-7,.cls-8{fill:none;}.cls-5,.cls-8{stroke:#fff;}.cls-6,.cls-7{stroke:#3ba83b;}.cls-6,.cls-8{stroke-width:3px;}</style></defs><title>logo</title><path d="M296.75,121.46l-5.25,1.07V16.71l6.72-1.4a3.51,3.51,0,1,0-1.47-6.87L291.5,9.54v-6a3.51,3.51,0,0,0-7,0V11l-134,27.83L16.52,11V3.51a3.51,3.51,0,0,0-7,0v6L4.25,8.45a3.51,3.51,0,1,0-1.47,6.87l6.72,1.4V122.54l-5.25-1.07a3.51,3.51,0,1,0-1.47,6.87l6.72,1.37v8a3.51,3.51,0,1,0,7,0v-6.56s132.65,27.2,133.95,27.2,134-27.2,134-27.2v6.56a3.51,3.51,0,1,0,7,0v-8l6.72-1.37A3.51,3.51,0,1,0,296.75,121.46ZM284.47,124l-134,27.37L16.52,124v-104L147.76,45.47a3.5,3.5,0,0,0,2.7.54h0.06a3.5,3.5,0,0,0,2.7-.54L284.47,19.93V124Z" transform="translate(0 0)"/><path class="cls-1" d="M150.5,59.43A43.6,43.6,0,0,1,152,53.1c1-3,3.62-4.67,11.46-5.7L281.55,24.61c2.7-.43,3-1.93,3,6.3,0,1.43,0,7.45,0,10.43,0,0.49,0,61.45,0,75.83,0,2.13-3.35,2.81-3.35,2.81L150.47,155.24Z" transform="translate(0 0)"/><path class="cls-2" d="M150.44,59.43a43.6,43.6,0,0,0-1.5-6.33c-1-3-3.62-4.67-11.46-5.7L19.39,24.61c-2.7-.43-3-1.93-3,6.3,0,1.43,0,7.45,0,10.43,0,0.49,0,61.45,0,75.83,0,2.13,3.35,2.81,3.35,2.81l130.68,35.26Z" transform="translate(0 0)"/><path class="cls-3" d="M148.5,154.64L25.13,129.45c-14.28-4.28-12.65-10.78-12.65-18.94,0-1.1,0-77.4,0-79,0-17.38,8.83-16,18-14.11L146.44,41.12s4.09,1,4.09,4.89c0,2.48,0,13.42,0,13.42A43.61,43.61,0,0,0,149,53.1c-1-3-3.62-4.67-11.46-5.7L19.45,24.61c-2.7-.43-3-1.93-3,6.3,0,1.43,0,7.45,0,10.43,0,0.49,0,61.45,0,75.83,0,2.13,3.37,2.81,3.37,2.81L148.5,146.23v8.41Z" transform="translate(0 0)"/><path class="cls-3" d="M152.5,154.64l123.37-25.18c14.28-4.28,12.65-10.78,12.65-18.94,0-1.1,0-77.4,0-79,0-17.38-13-15.68-18-14.11L154.55,41.12s-4.09,1-4.09,4.89c0,2.48,0,13.42,0,13.42A43.61,43.61,0,0,1,152,53.1c1-3,3.62-4.67,11.46-5.7L281.55,24.61c2.7-.43,3-1.93,3,6.3,0,1.43,0,7.45,0,10.43,0,0.49,0,61.45,0,75.83,0,2.13-3.37,2.81-3.37,2.81L152.5,146.23v8.41Z" transform="translate(0 0)"/><path d="M143.68,49" transform="translate(0 0)"/><path class="cls-4" d="M15,117.18" transform="translate(0 0)"/><rect class="cls-1" x="38.16" y="80.66" width="7" height="28.52" rx="3.5" ry="3.5"/><rect class="cls-5" x="38.16" y="80.66" width="7" height="28.52" rx="3.5" ry="3.5"/><rect class="cls-6" x="38.16" y="80.66" width="7" height="28.52" rx="3.5" ry="3.5"/><rect class="cls-1" x="38.16" y="64.62" width="7" height="10.31" rx="3.5" ry="3.5"/><rect class="cls-5" x="38.16" y="64.62" width="7" height="10.31" rx="3.5" ry="3.5"/><rect class="cls-6" x="38.16" y="64.62" width="7" height="10.31" rx="3.5" ry="3.5"/><path class="cls-1" d="M66.38,80.79c3.24,0,13.26,1.13,13.26,11.29v13.6a3.5,3.5,0,0,1-7,0V93.79c0-6-6.26-5.87-6.26-5.87s-6.26-.12-6.26,5.88v11.89a3.5,3.5,0,1,1-7,0V92.08C53.12,81.92,63.62,80.79,66.38,80.79Z" transform="translate(0 0)"/><path class="cls-5" d="M66.38,80.79c3.24,0,13.26,1.13,13.26,11.29v13.6a3.5,3.5,0,0,1-7,0V93.79c0-6-6.26-5.87-6.26-5.87s-6.26-.12-6.26,5.88v11.89a3.5,3.5,0,1,1-7,0V92.08C53.12,81.92,63.62,80.79,66.38,80.79Z" transform="translate(0 0)"/><path class="cls-6" d="M66.38,80.79c3.24,0,13.26,1.13,13.26,11.29v13.6a3.5,3.5,0,0,1-7,0V93.79c0-6-6.26-5.87-6.26-5.87s-6.26-.12-6.26,5.88v11.89a3.5,3.5,0,1,1-7,0V92.08C53.12,81.92,63.62,80.79,66.38,80.79Z" transform="translate(0 0)"/><path class="cls-1" d="M87.39,94.92c0-3.24,1.13-14.26,11.29-14.26h11.9a3.5,3.5,0,0,1,0,7H100.39c-6,0-5.87,7.26-5.87,7.26s-0.12,7.26,5.87,7.26h10.19a3.5,3.5,0,0,1,0,7H98.68C88.51,109.18,87.39,97.68,87.39,94.92Z" transform="translate(0 0)"/><path class="cls-5" d="M87.39,94.92c0-3.24,1.13-14.26,11.29-14.26h11.9a3.5,3.5,0,0,1,0,7H100.39c-6,0-5.87,7.26-5.87,7.26s-0.12,7.26,5.87,7.26h10.19a3.5,3.5,0,0,1,0,7H98.68C88.51,109.18,87.39,97.68,87.39,94.92Z" transform="translate(0 0)"/><path class="cls-6" d="M87.39,94.92c0-3.24,1.13-14.26,11.29-14.26h11.9a3.5,3.5,0,0,1,0,7H100.39c-6,0-5.87,7.26-5.87,7.26s-0.12,7.26,5.87,7.26h10.19a3.5,3.5,0,0,1,0,7H98.68C88.51,109.18,87.39,97.68,87.39,94.92Z" transform="translate(0 0)"/><rect class="cls-1" x="38.16" y="80.66" width="7" height="28.52" rx="3.5" ry="3.5"/><rect class="cls-1" x="38.16" y="64.62" width="7" height="10.31" rx="3.5" ry="3.5"/><rect class="cls-1" x="121.95" y="66.99" width="7.5" height="42.19" rx="3.5" ry="3.5"/><rect class="cls-5" x="121.95" y="66.99" width="7.5" height="42.19" rx="3.5" ry="3.5"/><rect class="cls-6" x="121.95" y="66.99" width="7.5" height="42.19" rx="3.5" ry="3.5"/><rect class="cls-1" x="121.95" y="66.99" width="7.5" height="42.19" rx="3.5" ry="3.5"/><path class="cls-1" d="M66.38,80.79c3.24,0,13.26,1.13,13.26,11.29v13.6a3.5,3.5,0,0,1-7,0V93.79c0-6-6.26-5.87-6.26-5.87s-6.26-.12-6.26,5.88v11.89a3.5,3.5,0,1,1-7,0V92.08C53.12,81.92,63.62,80.79,66.38,80.79Z" transform="translate(0 0)"/><path class="cls-2" d="M265.06,83.86c-2-2.82-4.65-3-6.94-3.2-1.74-.15-4.54,0-6.69,0-3.39,0-11.05,1.84-11.05,13.28,0,0.35,0,.66,0,0.95a3.43,3.43,0,0,0,0,.49v10.3a3.5,3.5,0,1,0,7,0V101h0c0-2,0-1.3,0-2.72,0-4.87,0-11.71,4.8-11.71h3.62c1.83,0,3.36-.16,4.54,2.55,0.43,1,3,1.87,4.83.54S266,85.23,265.06,83.86Z" transform="translate(0 0)"/><path class="cls-7" d="M265.06,83.86c-2-2.82-4.65-3-6.94-3.2-1.74-.15-4.54,0-6.69,0-3.39,0-11.05,1.84-11.05,13.28,0,0.35,0,.66,0,0.95a3.43,3.43,0,0,0,0,.49v10.3a3.5,3.5,0,1,0,7,0V101h0c0-2,0-1.3,0-2.72,0-4.87,0-11.71,4.8-11.71h3.62c1.83,0,3.36-.16,4.54,2.55,0.43,1,3,1.87,4.83.54S266,85.23,265.06,83.86Z" transform="translate(0 0)"/><path class="cls-8" d="M265.06,83.86c-2-2.82-4.65-3-6.94-3.2-1.74-.15-4.54,0-6.69,0-3.39,0-11.05,1.84-11.05,13.28,0,0.35,0,.66,0,0.95a3.43,3.43,0,0,0,0,.49v10.3a3.5,3.5,0,1,0,7,0V101h0c0-2,0-1.3,0-2.72,0-4.87,0-11.71,4.8-11.71h3.62c1.83,0,3.36-.16,4.54,2.55,0.43,1,3,1.87,4.83.54S266,85.23,265.06,83.86Z" transform="translate(0 0)"/><path class="cls-2" d="M194.66,64a3.51,3.51,0,0,0-3.5,3.5V81.28a25.44,25.44,0,0,0-6.26-.62c-6.28,0-13.26,1.13-13.26,11.29v5.94c0,10.17,6.1,11.29,13.26,11.29,7.72,0,13.26-1.12,13.26-11.29V67.55A3.51,3.51,0,0,0,194.66,64Zm-16,32.26V94.53c0-5.38,1.93-7.24,6.26-7.24,4.59,0,6.26,1.24,6.26,7.24v1.77c0,6-2.37,5.88-6.26,5.88C181.75,102.18,178.65,102.31,178.65,96.31Z" transform="translate(0 0)"/><path class="cls-7" d="M194.66,64a3.51,3.51,0,0,0-3.5,3.5V81.28a25.44,25.44,0,0,0-6.26-.62c-6.28,0-13.26,1.13-13.26,11.29v5.94c0,10.17,6.1,11.29,13.26,11.29,7.72,0,13.26-1.12,13.26-11.29V67.55A3.51,3.51,0,0,0,194.66,64Zm-16,32.26V94.53c0-5.38,1.93-7.24,6.26-7.24,4.59,0,6.26,1.24,6.26,7.24v1.77c0,6-2.37,5.88-6.26,5.88C181.75,102.18,178.65,102.31,178.65,96.31Z" transform="translate(0 0)"/><path class="cls-8" d="M194.66,64a3.51,3.51,0,0,0-3.5,3.5V81.28a25.44,25.44,0,0,0-6.26-.62c-6.28,0-13.26,1.13-13.26,11.29v5.94c0,10.17,6.1,11.29,13.26,11.29,7.72,0,13.26-1.12,13.26-11.29V67.55A3.51,3.51,0,0,0,194.66,64Zm-16,32.26V94.53c0-5.38,1.93-7.24,6.26-7.24,4.59,0,6.26,1.24,6.26,7.24v1.77c0,6-2.37,5.88-6.26,5.88C181.75,102.18,178.65,102.31,178.65,96.31Z" transform="translate(0 0)"/><path class="cls-2" d="M265.06,83.86c-2-2.82-4.65-3-6.94-3.2-1.74-.15-4.54,0-6.69,0-3.39,0-11.05,1.84-11.05,13.28,0,0.35,0,.66,0,0.95a3.43,3.43,0,0,0,0,.49v10.3a3.5,3.5,0,1,0,7,0V101h0c0-2,0-1.3,0-2.72,0-4.87,0-11.71,4.8-11.71h3.62c1.83,0,3.36-.16,4.54,2.55,0.43,1,3,1.87,4.83.54S266,85.23,265.06,83.86Z" transform="translate(0 0)"/><path class="cls-1" d="M150.8,109.18c-3.24,0-13.26-1.12-13.26-11.29V84.16a3.5,3.5,0,0,1,7,0v12c0,6,6.26,5.88,6.26,5.88s6.26,0.13,6.26-5.88v-12a3.5,3.5,0,0,1,7,0V97.89C164.06,108.05,153.56,109.18,150.8,109.18Z" transform="translate(0 0)"/><path class="cls-7" d="M150.8,109.18c-3.24,0-13.26-1.12-13.26-11.29V84.16a3.5,3.5,0,0,1,7,0v12c0,6,6.26,5.88,6.26,5.88s6.26,0.13,6.26-5.88v-12a3.5,3.5,0,0,1,7,0V97.89C164.06,108.05,153.56,109.18,150.8,109.18Z" transform="translate(0 0)"/><path class="cls-8" d="M150.8,109.18c-3.24,0-13.26-1.12-13.26-11.29V84.16a3.5,3.5,0,0,1,7,0v12c0,6,6.26,5.88,6.26,5.88s6.26,0.13,6.26-5.88v-12a3.5,3.5,0,0,1,7,0V97.89C164.06,108.05,153.56,109.18,150.8,109.18Z" transform="translate(0 0)"/><path class="cls-2" d="M150.8,109.18c-3.24,0-13.26-1.12-13.26-11.29V84.16a3.5,3.5,0,0,1,7,0v12c0,6,6.26,5.88,6.26,5.88s6.26,0.13,6.26-5.88v-12a3.5,3.5,0,0,1,7,0V97.89C164.06,108.05,153.56,109.18,150.8,109.18Z" transform="translate(0 0)"/><path class="cls-1" d="M87.39,94.92c0-3.24,1.13-14.26,11.29-14.26h11.9a3.5,3.5,0,0,1,0,7H100.39c-6,0-5.87,7.26-5.87,7.26s-0.12,7.26,5.87,7.26h10.19a3.5,3.5,0,0,1,0,7H98.68C88.51,109.18,87.39,97.68,87.39,94.92Z" transform="translate(0 0)"/><path class="cls-2" d="M194.66,64a3.51,3.51,0,0,0-3.5,3.5V81.28a25.44,25.44,0,0,0-6.26-.62c-6.28,0-13.26,1.13-13.26,11.29v5.94c0,10.17,6.1,11.29,13.26,11.29,7.72,0,13.26-1.12,13.26-11.29V67.55A3.51,3.51,0,0,0,194.66,64Zm-16,32.26V94.53c0-5.38,1.93-7.24,6.26-7.24,4.59,0,6.26,1.24,6.26,7.24v1.77c0,6-2.37,5.88-6.26,5.88C181.75,102.18,178.65,102.31,178.65,96.31Z" transform="translate(0 0)"/><path class="cls-2" d="M223.45,98.18h5.76c2.35,0,4.59-2.37,4.59-5.61,0-2.92-1.3-6.35-2-7h0a9.61,9.61,0,0,0-8.42-4.85h-6.6c-10.17,0-11.29,11-11.29,14.26,0,2.72,1.1,13.93,10.88,14.24h12.4a3.5,3.5,0,0,0,0-7H218.5a5.35,5.35,0,0,1-5.32-4h10.27Zm-5-11.52h3.19c2.94,0,5.14,2.77,5.14,4.52H213.36C213.36,89.12,215.56,86.66,218.5,86.66Z" transform="translate(0 0)"/><path class="cls-7" d="M223.45,98.18h5.76c2.35,0,4.59-2.37,4.59-5.61,0-2.92-1.3-6.35-2-7h0a9.61,9.61,0,0,0-8.42-4.85h-6.6c-10.17,0-11.29,11-11.29,14.26,0,2.72,1.1,13.93,10.88,14.24h12.4a3.5,3.5,0,0,0,0-7H218.5a5.35,5.35,0,0,1-5.32-4h10.27Zm-5-11.52h3.19c2.94,0,5.14,2.77,5.14,4.52H213.36C213.36,89.12,215.56,86.66,218.5,86.66Z" transform="translate(0 0)"/><path class="cls-8" d="M223.45,98.18h5.76c2.35,0,4.59-2.37,4.59-5.61,0-2.92-1.3-6.35-2-7h0a9.61,9.61,0,0,0-8.42-4.85h-6.6c-10.17,0-11.29,11-11.29,14.26,0,2.72,1.1,13.93,10.88,14.24h12.4a3.5,3.5,0,0,0,0-7H218.5a5.35,5.35,0,0,1-5.32-4h10.27Zm-5-11.52h3.19c2.94,0,5.14,2.77,5.14,4.52H213.36C213.36,89.12,215.56,86.66,218.5,86.66Z" transform="translate(0 0)"/><path class="cls-2" d="M223.45,98.18h5.76c2.35,0,4.59-2.37,4.59-5.61,0-2.92-1.3-6.35-2-7h0a9.61,9.61,0,0,0-8.42-4.85h-6.6c-10.17,0-11.29,11-11.29,14.26,0,2.72,1.1,13.93,10.88,14.24h12.4a3.5,3.5,0,0,0,0-7H218.5a5.35,5.35,0,0,1-5.32-4h10.27Zm-5-11.52h3.19c2.94,0,5.14,2.77,5.14,4.52H213.36C213.36,89.12,215.56,86.66,218.5,86.66Z" transform="translate(0 0)"/></svg>